<svg width="18" height="17" viewBox="0 0 18 17" fill="none" xmlns="http://www.w3.org/2000/svg">
<path d="M8.2867 2.19531C8.5117 1.50456 9.48895 1.50456 9.7132 2.19531L10.8525 5.70081C10.9015 5.85117 10.9968 5.98219 11.1248 6.07514C11.2527 6.16808 11.4068 6.21819 11.565 6.21831H15.2512C15.9779 6.21831 16.2795 7.14831 15.6922 7.57581L12.7102 9.74181C12.5821 9.83493 12.4868 9.96621 12.4379 10.1168C12.389 10.2675 12.389 10.4297 12.438 10.5803L13.5764 14.0858C13.8014 14.7773 13.0102 15.3518 12.4229 14.9243L9.44095 12.7583C9.31278 12.6651 9.1584 12.615 8.99995 12.615C8.8415 12.615 8.68712 12.6651 8.55895 12.7583L5.57695 14.9243C4.9897 15.3518 4.19845 14.7766 4.42345 14.0858L5.56195 10.5803C5.61091 10.4297 5.61094 10.2675 5.56203 10.1168C5.51312 9.96621 5.41779 9.83493 5.2897 9.74181L2.3077 7.57581C1.7197 7.14831 2.0227 6.21831 2.7487 6.21831H6.4342C6.59249 6.21835 6.74673 6.16831 6.87484 6.07536C7.00296 5.9824 7.09838 5.8513 7.14745 5.70081L8.2867 2.19531V2.19531Z" stroke="#C2CFE0" stroke-width="2" stroke-linecap="round" stroke-linejoin="round"/>
</svg>
