<svg width="50" height="30" viewBox="0 0 50 30" fill="none" xmlns="http://www.w3.org/2000/svg">
<rect width="50" height="30" rx="4" fill="#414141"/>
<path d="M28.7111 8.18689H21.2705V21.8143H28.7111V8.18689Z" fill="#FF5F00"/>
<path d="M21.7416 15C21.7404 13.6876 22.0322 12.3921 22.5949 11.2116C23.1576 10.0311 23.9765 8.99659 24.9895 8.18631C23.735 7.18137 22.2284 6.55641 20.642 6.38287C19.0555 6.20933 17.4531 6.49419 16.018 7.20492C14.5829 7.91565 13.3729 9.02356 12.5264 10.402C11.6799 11.7805 11.231 13.3738 11.231 15C11.231 16.6262 11.6799 18.2196 12.5264 19.598C13.3729 20.9765 14.5829 22.0844 16.018 22.7951C17.4531 23.5059 19.0555 23.7907 20.642 23.6172C22.2284 23.4436 23.735 22.8187 24.9895 21.8137C23.9765 21.0035 23.1576 19.9689 22.5949 18.7884C22.0322 17.6079 21.7404 16.3124 21.7416 15V15Z" fill="#EB001B"/>
<path d="M38.7493 15C38.7493 16.6262 38.3005 18.2196 37.454 19.598C36.6075 20.9765 35.3976 22.0844 33.9625 22.7951C32.5274 23.5058 30.9251 23.7907 29.3386 23.6172C27.7522 23.4436 26.2456 22.8187 24.9912 21.8137C26.0033 21.0026 26.8215 19.9679 27.3841 18.7876C27.9467 17.6073 28.239 16.3122 28.239 15C28.239 13.6878 27.9467 12.3927 27.3841 11.2124C26.8215 10.0321 26.0033 8.99741 24.9912 8.18631C26.2456 7.18137 27.7522 6.55641 29.3386 6.38287C30.9251 6.20933 32.5274 6.49421 33.9625 7.20494C35.3976 7.91568 36.6075 9.02359 37.454 10.402C38.3005 11.7805 38.7493 13.3739 38.7493 15V15Z" fill="#F79E1B"/>
</svg>
